<svg width="22" height="22" viewBox="0 0 22 22" fill="none" xmlns="http://www.w3.org/2000/svg">
<path d="M17.7835 13.6171C17.0446 13.4582 16.4601 13.8012 15.9426 14.1008C15.4125 14.4096 14.4047 15.2272 13.827 15.0179C10.8692 13.8001 8.08735 11.2112 6.88313 8.24161C6.67089 7.65157 7.48467 6.6373 7.79111 6.10101C8.08848 5.58187 8.42443 4.99183 8.27121 4.24743C8.13274 3.57849 6.34174 1.29953 5.70842 0.676328C5.29075 0.264674 4.86286 0.0382642 4.42362 0.00167272C2.77222 -0.0692232 0.927868 2.13427 0.604398 2.66141C-0.205981 3.78546 -0.201441 5.28113 0.618017 7.0947C2.59289 11.9659 10.0622 19.3174 14.9517 21.3665C15.854 21.7885 16.6792 22 17.4203 22C18.1456 22 18.7914 21.7976 19.3464 21.3962C19.7652 21.155 22.059 19.219 21.9988 17.5233C21.9625 17.091 21.7367 16.6588 21.3303 16.2403C20.7118 15.6011 18.4475 13.7566 17.7835 13.6171Z" fill="white"/>
</svg>
