<svg width="27" height="20" viewBox="0 0 27 20" fill="none" xmlns="http://www.w3.org/2000/svg">
<path opacity="0.4" d="M26.0967 3.19762C25.531 2.85207 24.8358 2.8215 24.2431 3.11389L22.2423 4.0934C21.5025 4.4549 21.0435 5.18588 21.0435 5.99926V13.636C21.0435 14.4493 21.5025 15.179 22.2423 15.5432L24.2417 16.5213C24.5131 16.6569 24.8034 16.722 25.0936 16.722C25.4419 16.722 25.7876 16.6263 26.0967 16.4389C26.6624 16.0947 26.9999 15.498 26.9999 14.8441V4.79381C26.9999 4.13992 26.6624 3.54318 26.0967 3.19762Z" fill="white"/>
<path d="M13.3723 19.6367H5.55278C2.28295 19.6367 0 17.4504 0 14.3205V5.31619C0 2.18496 2.28295 0 5.55278 0H13.3723C16.6421 0 18.9251 2.18496 18.9251 5.31619V14.3205C18.9251 17.4504 16.6421 19.6367 13.3723 19.6367Z" fill="white"/>
</svg>
